<?xml version="1.0" encoding="UTF-8"?>
<svg width="308px" height="72px" viewBox="0 0 308 72" version="1.1" xmlns="http://www.w3.org/2000/svg" xmlns:xlink="http://www.w3.org/1999/xlink">
    <!-- Generator: Sketch 60 (88103) - https://sketch.com -->
    <title>Combined Shape</title>
    <desc>Created with Sketch.</desc>
    <g id="L'air-de-Valmy" stroke="none" stroke-width="1" fill="none" fill-rule="evenodd">
        <g id="Artboard" transform="translate(-358.000000, -621.000000)" fill="#FFFFFF">
            <path d="M362,621 L662,621 C664.209139,621 666,622.790861 666,625 L666,689 C666,691.209139 664.209139,693 662,693 L362,693 C359.790861,693 358,691.209139 358,689 L358,625 C358,622.790861 359.790861,621 362,621 Z M385.87,667 C387.25,667 388.64,666.795 390.04,666.385 C391.44,665.975 392.7,665.34 393.82,664.48 C394.94,663.62 395.85,662.52 396.55,661.18 C397.25,659.84 397.6,658.24 397.6,656.38 C397.6,654.38 397.25,652.705 396.55,651.355 C395.85,650.005 394.94,648.915 393.82,648.085 C392.7,647.255 391.44,646.66 390.04,646.3 C388.64,645.94 387.25,645.76 385.87,645.76 L385.87,645.76 L378.34,645.76 L378.34,667 L385.87,667 Z M385.27,663.7 L382.12,663.7 L382.12,649 L385.27,649 C386.25,649 387.23,649.1 388.21,649.3 C389.19,649.5 390.075,649.87 390.865,650.41 C391.655,650.95 392.3,651.7 392.8,652.66 C393.3,653.62 393.55,654.86 393.55,656.38 C393.55,657.82 393.3,659.01 392.8,659.95 C392.3,660.89 391.655,661.635 390.865,662.185 C390.075,662.735 389.19,663.125 388.21,663.355 C387.23,663.585 386.25,663.7 385.27,663.7 L385.27,663.7 Z M407.822471,650.08 L412.052471,645.76 L407.972471,645.76 L405.002471,650.08 L407.822471,650.08 Z M407.132471,667.42 C409.832471,667.42 411.892471,666.46 413.312471,664.54 L413.312471,664.54 L410.912471,662.62 C410.512471,663.2 410.002471,663.655 409.382471,663.985 C408.762471,664.315 408.002471,664.48 407.102471,664.48 C406.582471,664.48 406.082471,664.39 405.602471,664.21 C405.122471,664.03 404.692471,663.785 404.312471,663.475 C403.932471,663.165 403.627471,662.795 403.397471,662.365 C403.167471,661.935 403.032471,661.46 402.992471,660.94 L402.992471,660.94 L413.942471,660.94 C413.962471,660.78 413.972471,660.62 413.972471,660.46 L413.972471,660.46 L413.972471,659.98 C413.972471,658.68 413.797471,657.545 413.447471,656.575 C413.097471,655.605 412.612471,654.795 411.992471,654.145 C411.372471,653.495 410.637471,653.005 409.787471,652.675 C408.937471,652.345 408.012471,652.18 407.012471,652.18 C405.932471,652.18 404.927471,652.365 403.997471,652.735 C403.067471,653.105 402.262471,653.625 401.582471,654.295 C400.902471,654.965 400.367471,655.775 399.977471,656.725 C399.587471,657.675 399.392471,658.73 399.392471,659.89 C399.392471,661.07 399.587471,662.125 399.977471,663.055 C400.367471,663.985 400.907471,664.77 401.597471,665.41 C402.287471,666.05 403.102471,666.545 404.042471,666.895 C404.982471,667.245 406.012471,667.42 407.132471,667.42 Z M410.372471,658.36 L402.992471,658.36 C403.072471,657.34 403.487471,656.505 404.237471,655.855 C404.987471,655.205 405.902471,654.88 406.982471,654.88 C407.562471,654.88 408.067471,654.975 408.497471,655.165 C408.927471,655.355 409.282471,655.61 409.562471,655.93 C409.842471,656.25 410.047471,656.62 410.177471,657.04 C410.307471,657.46 410.372471,657.9 410.372471,658.36 L410.372471,658.36 Z M423.564943,667.42 C424.644943,667.42 425.649943,667.245 426.579943,666.895 C427.509943,666.545 428.274943,666.05 428.874943,665.41 L428.874943,665.41 L426.624943,663.13 C426.284943,663.55 425.834943,663.87 425.274943,664.09 C424.714943,664.31 424.154943,664.42 423.594943,664.42 C422.914943,664.42 422.319943,664.285 421.809943,664.015 C421.299943,663.745 420.874943,663.39 420.534943,662.95 C420.194943,662.51 419.939943,662.015 419.769943,661.465 C419.599943,660.915 419.514943,660.36 419.514943,659.8 C419.514943,659.24 419.594943,658.685 419.754943,658.135 C419.914943,657.585 420.159943,657.09 420.489943,656.65 C420.819943,656.21 421.234943,655.855 421.734943,655.585 C422.234943,655.315 422.814943,655.18 423.474943,655.18 C424.054943,655.18 424.624943,655.315 425.184943,655.585 C425.744943,655.855 426.164943,656.19 426.444943,656.59 L426.444943,656.59 L428.904943,654.43 C428.324943,653.73 427.539943,653.18 426.549943,652.78 C425.559943,652.38 424.534943,652.18 423.474943,652.18 C422.414943,652.18 421.419943,652.36 420.489943,652.72 C419.559943,653.08 418.744943,653.59 418.044943,654.25 C417.344943,654.91 416.789943,655.71 416.379943,656.65 C415.969943,657.59 415.764943,658.64 415.764943,659.8 C415.764943,661 415.969943,662.07 416.379943,663.01 C416.789943,663.95 417.349943,664.75 418.059943,665.41 C418.769943,666.07 419.599943,666.57 420.549943,666.91 C421.499943,667.25 422.504943,667.42 423.564943,667.42 Z M437.387414,667.42 C438.467414,667.42 439.487414,667.23 440.447414,666.85 C441.407414,666.47 442.237414,665.945 442.937414,665.275 C443.637414,664.605 444.192414,663.8 444.602414,662.86 C445.012414,661.92 445.217414,660.88 445.217414,659.74 C445.217414,658.6 445.012414,657.565 444.602414,656.635 C444.192414,655.705 443.637414,654.91 442.937414,654.25 C442.237414,653.59 441.407414,653.08 440.447414,652.72 C439.487414,652.36 438.467414,652.18 437.387414,652.18 C436.307414,652.18 435.287414,652.36 434.327414,652.72 C433.367414,653.08 432.537414,653.59 431.837414,654.25 C431.137414,654.91 430.582414,655.705 430.172414,656.635 C429.762414,657.565 429.557414,658.6 429.557414,659.74 C429.557414,660.88 429.762414,661.92 430.172414,662.86 C430.582414,663.8 431.137414,664.605 431.837414,665.275 C432.537414,665.945 433.367414,666.47 434.327414,666.85 C435.287414,667.23 436.307414,667.42 437.387414,667.42 Z M437.387414,664.42 C436.667414,664.42 436.047414,664.28 435.527414,664 C435.007414,663.72 434.577414,663.36 434.237414,662.92 C433.897414,662.48 433.642414,661.98 433.472414,661.42 C433.302414,660.86 433.217414,660.3 433.217414,659.74 C433.217414,659.18 433.302414,658.625 433.472414,658.075 C433.642414,657.525 433.897414,657.03 434.237414,656.59 C434.577414,656.15 435.007414,655.795 435.527414,655.525 C436.047414,655.255 436.667414,655.12 437.387414,655.12 C438.107414,655.12 438.727414,655.255 439.247414,655.525 C439.767414,655.795 440.197414,656.15 440.537414,656.59 C440.877414,657.03 441.132414,657.525 441.302414,658.075 C441.472414,658.625 441.557414,659.18 441.557414,659.74 C441.557414,660.3 441.472414,660.86 441.302414,661.42 C441.132414,661.98 440.877414,662.48 440.537414,662.92 C440.197414,663.36 439.767414,663.72 439.247414,664 C438.727414,664.28 438.107414,664.42 437.387414,664.42 Z M453.039886,667.42 C454.119886,667.42 455.054886,667.145 455.844886,666.595 C456.634886,666.045 457.189886,665.41 457.509886,664.69 L457.509886,664.69 L457.569886,664.69 L457.569886,667 L460.989886,667 L460.989886,652.6 L457.389886,652.6 L457.389886,660.52 C457.389886,661 457.319886,661.475 457.179886,661.945 C457.039886,662.415 456.834886,662.83 456.564886,663.19 C456.294886,663.55 455.944886,663.845 455.514886,664.075 C455.084886,664.305 454.589886,664.42 454.029886,664.42 C453.449886,664.42 452.984886,664.3 452.634886,664.06 C452.284886,663.82 452.009886,663.515 451.809886,663.145 C451.609886,662.775 451.479886,662.36 451.419886,661.9 C451.359886,661.44 451.329886,661 451.329886,660.58 L451.329886,660.58 L451.329886,652.6 L447.729886,652.6 L447.729886,661.6 C447.729886,662.34 447.829886,663.06 448.029886,663.76 C448.229886,664.46 448.544886,665.08 448.974886,665.62 C449.404886,666.16 449.954886,666.595 450.624886,666.925 C451.294886,667.255 452.099886,667.42 453.039886,667.42 Z M471.962357,667 L477.692357,652.6 L473.882357,652.6 L470.072357,663.1 L470.012357,663.1 L466.232357,652.6 L462.302357,652.6 L468.122357,667 L471.962357,667 Z M485.904829,667.42 C488.604829,667.42 490.664829,666.46 492.084829,664.54 L492.084829,664.54 L489.684829,662.62 C489.284829,663.2 488.774829,663.655 488.154829,663.985 C487.534829,664.315 486.774829,664.48 485.874829,664.48 C485.354829,664.48 484.854829,664.39 484.374829,664.21 C483.894829,664.03 483.464829,663.785 483.084829,663.475 C482.704829,663.165 482.399829,662.795 482.169829,662.365 C481.939829,661.935 481.804829,661.46 481.764829,660.94 L481.764829,660.94 L492.714829,660.94 C492.734829,660.78 492.744829,660.62 492.744829,660.46 L492.744829,660.46 L492.744829,659.98 C492.744829,658.68 492.569829,657.545 492.219829,656.575 C491.869829,655.605 491.384829,654.795 490.764829,654.145 C490.144829,653.495 489.409829,653.005 488.559829,652.675 C487.709829,652.345 486.784829,652.18 485.784829,652.18 C484.704829,652.18 483.699829,652.365 482.769829,652.735 C481.839829,653.105 481.034829,653.625 480.354829,654.295 C479.674829,654.965 479.139829,655.775 478.749829,656.725 C478.359829,657.675 478.164829,658.73 478.164829,659.89 C478.164829,661.07 478.359829,662.125 478.749829,663.055 C479.139829,663.985 479.679829,664.77 480.369829,665.41 C481.059829,666.05 481.874829,666.545 482.814829,666.895 C483.754829,667.245 484.784829,667.42 485.904829,667.42 Z M489.144829,658.36 L481.764829,658.36 C481.844829,657.34 482.259829,656.505 483.009829,655.855 C483.759829,655.205 484.674829,654.88 485.754829,654.88 C486.334829,654.88 486.839829,654.975 487.269829,655.165 C487.699829,655.355 488.054829,655.61 488.334829,655.93 C488.614829,656.25 488.819829,656.62 488.949829,657.04 C489.079829,657.46 489.144829,657.9 489.144829,658.36 L489.144829,658.36 Z M506.6573,667 L506.6573,664.06 L498.4973,664.06 L506.2973,655.78 L506.2973,652.6 L494.5973,652.6 L494.5973,655.48 L502.0073,655.48 L494.2373,663.82 L494.2373,667 L506.6573,667 Z M519.242243,667 L519.242243,659.08 C519.242243,658.6 519.312243,658.125 519.452243,657.655 C519.592243,657.185 519.797243,656.77 520.067243,656.41 C520.337243,656.05 520.682243,655.755 521.102243,655.525 C521.522243,655.295 522.022243,655.18 522.602243,655.18 C523.182243,655.18 523.647243,655.3 523.997243,655.54 C524.347243,655.78 524.622243,656.085 524.822243,656.455 C525.022243,656.825 525.152243,657.24 525.212243,657.7 C525.272243,658.16 525.302243,658.6 525.302243,659.02 L525.302243,659.02 L525.302243,667 L528.902243,667 L528.902243,658 C528.902243,657.26 528.802243,656.54 528.602243,655.84 C528.402243,655.14 528.087243,654.52 527.657243,653.98 C527.227243,653.44 526.677243,653.005 526.007243,652.675 C525.337243,652.345 524.532243,652.18 523.592243,652.18 C522.512243,652.18 521.577243,652.455 520.787243,653.005 C519.997243,653.555 519.442243,654.19 519.122243,654.91 L519.122243,654.91 L519.062243,654.91 L519.062243,652.6 L515.642243,652.6 L515.642243,667 L519.242243,667 Z M539.244714,667.42 C540.324714,667.42 541.344714,667.23 542.304714,666.85 C543.264714,666.47 544.094714,665.945 544.794714,665.275 C545.494714,664.605 546.049714,663.8 546.459714,662.86 C546.869714,661.92 547.074714,660.88 547.074714,659.74 C547.074714,658.6 546.869714,657.565 546.459714,656.635 C546.049714,655.705 545.494714,654.91 544.794714,654.25 C544.094714,653.59 543.264714,653.08 542.304714,652.72 C541.344714,652.36 540.324714,652.18 539.244714,652.18 C538.164714,652.18 537.144714,652.36 536.184714,652.72 C535.224714,653.08 534.394714,653.59 533.694714,654.25 C532.994714,654.91 532.439714,655.705 532.029714,656.635 C531.619714,657.565 531.414714,658.6 531.414714,659.74 C531.414714,660.88 531.619714,661.92 532.029714,662.86 C532.439714,663.8 532.994714,664.605 533.694714,665.275 C534.394714,665.945 535.224714,666.47 536.184714,666.85 C537.144714,667.23 538.164714,667.42 539.244714,667.42 Z M539.244714,664.42 C538.524714,664.42 537.904714,664.28 537.384714,664 C536.864714,663.72 536.434714,663.36 536.094714,662.92 C535.754714,662.48 535.499714,661.98 535.329714,661.42 C535.159714,660.86 535.074714,660.3 535.074714,659.74 C535.074714,659.18 535.159714,658.625 535.329714,658.075 C535.499714,657.525 535.754714,657.03 536.094714,656.59 C536.434714,656.15 536.864714,655.795 537.384714,655.525 C537.904714,655.255 538.524714,655.12 539.244714,655.12 C539.964714,655.12 540.584714,655.255 541.104714,655.525 C541.624714,655.795 542.054714,656.15 542.394714,656.59 C542.734714,657.03 542.989714,657.525 543.159714,658.075 C543.329714,658.625 543.414714,659.18 543.414714,659.74 C543.414714,660.3 543.329714,660.86 543.159714,661.42 C542.989714,661.98 542.734714,662.48 542.394714,662.92 C542.054714,663.36 541.624714,663.72 541.104714,664 C540.584714,664.28 539.964714,664.42 539.244714,664.42 Z M553.907186,667.42 C554.687186,667.42 555.442186,667.335 556.172186,667.165 C556.902186,666.995 557.542186,666.72 558.092186,666.34 C558.642186,665.96 559.082186,665.465 559.412186,664.855 C559.742186,664.245 559.907186,663.5 559.907186,662.62 C559.907186,661.92 559.767186,661.325 559.487186,660.835 C559.207186,660.345 558.842186,659.935 558.392186,659.605 C557.942186,659.275 557.442186,659.01 556.892186,658.81 C556.342186,658.61 555.797186,658.45 555.257186,658.33 C554.237186,658.09 553.462186,657.855 552.932186,657.625 C552.402186,657.395 552.137186,657 552.137186,656.44 C552.137186,655.88 552.377186,655.48 552.857186,655.24 C553.337186,655 553.867186,654.88 554.447186,654.88 C555.107186,654.88 555.717186,655.035 556.277186,655.345 C556.837186,655.655 557.277186,656.02 557.597186,656.44 L557.597186,656.44 L559.937186,654.37 C559.357186,653.63 558.572186,653.08 557.582186,652.72 C556.592186,652.36 555.577186,652.18 554.537186,652.18 C553.817186,652.18 553.117186,652.27 552.437186,652.45 C551.757186,652.63 551.147186,652.905 550.607186,653.275 C550.067186,653.645 549.632186,654.12 549.302186,654.7 C548.972186,655.28 548.807186,655.97 548.807186,656.77 C548.807186,657.45 548.927186,658.02 549.167186,658.48 C549.407186,658.94 549.727186,659.325 550.127186,659.635 C550.527186,659.945 550.982186,660.195 551.492186,660.385 C552.002186,660.575 552.527186,660.73 553.067186,660.85 C554.167186,661.11 554.992186,661.37 555.542186,661.63 C556.092186,661.89 556.367186,662.32 556.367186,662.92 C556.367186,663.24 556.297186,663.51 556.157186,663.73 C556.017186,663.95 555.832186,664.125 555.602186,664.255 C555.372186,664.385 555.122186,664.48 554.852186,664.54 C554.582186,664.6 554.317186,664.63 554.057186,664.63 C553.277186,664.63 552.567186,664.46 551.927186,664.12 C551.287186,663.78 550.767186,663.35 550.367186,662.83 L550.367186,662.83 L547.997186,665.05 C548.697186,665.81 549.577186,666.395 550.637186,666.805 C551.697186,667.215 552.787186,667.42 553.907186,667.42 Z M575.822129,667.42 C576.902129,667.42 577.922129,667.23 578.882129,666.85 C579.842129,666.47 580.672129,665.945 581.372129,665.275 C582.072129,664.605 582.627129,663.8 583.037129,662.86 C583.447129,661.92 583.652129,660.88 583.652129,659.74 C583.652129,658.6 583.447129,657.565 583.037129,656.635 C582.627129,655.705 582.072129,654.91 581.372129,654.25 C580.672129,653.59 579.842129,653.08 578.882129,652.72 C577.922129,652.36 576.902129,652.18 575.822129,652.18 C574.742129,652.18 573.722129,652.36 572.762129,652.72 C571.802129,653.08 570.972129,653.59 570.272129,654.25 C569.572129,654.91 569.017129,655.705 568.607129,656.635 C568.197129,657.565 567.992129,658.6 567.992129,659.74 C567.992129,660.88 568.197129,661.92 568.607129,662.86 C569.017129,663.8 569.572129,664.605 570.272129,665.275 C570.972129,665.945 571.802129,666.47 572.762129,666.85 C573.722129,667.23 574.742129,667.42 575.822129,667.42 Z M575.822129,664.42 C575.102129,664.42 574.482129,664.28 573.962129,664 C573.442129,663.72 573.012129,663.36 572.672129,662.92 C572.332129,662.48 572.077129,661.98 571.907129,661.42 C571.737129,660.86 571.652129,660.3 571.652129,659.74 C571.652129,659.18 571.737129,658.625 571.907129,658.075 C572.077129,657.525 572.332129,657.03 572.672129,656.59 C573.012129,656.15 573.442129,655.795 573.962129,655.525 C574.482129,655.255 575.102129,655.12 575.822129,655.12 C576.542129,655.12 577.162129,655.255 577.682129,655.525 C578.202129,655.795 578.632129,656.15 578.972129,656.59 C579.312129,657.03 579.567129,657.525 579.737129,658.075 C579.907129,658.625 579.992129,659.18 579.992129,659.74 C579.992129,660.3 579.907129,660.86 579.737129,661.42 C579.567129,661.98 579.312129,662.48 578.972129,662.92 C578.632129,663.36 578.202129,663.72 577.682129,664 C577.162129,664.28 576.542129,664.42 575.822129,664.42 Z M590.4546,667 L590.4546,655.48 L593.7846,655.48 L593.7846,652.6 L590.4546,652.6 L590.4546,650.26 C590.4546,649.9 590.4846,649.53 590.5446,649.15 C590.6046,648.77 590.7196,648.42 590.8896,648.1 C591.0596,647.78 591.3046,647.52 591.6246,647.32 C591.9446,647.12 592.3646,647.02 592.8846,647.02 C593.1446,647.02 593.3896,647.04 593.6196,647.08 C593.8496,647.12 594.0646,647.17 594.2646,647.23 L594.2646,647.23 L594.5046,644.17 C594.2246,644.09 593.9496,644.035 593.6796,644.005 C593.4096,643.975 593.0746,643.96 592.6746,643.96 C591.5546,643.96 590.6246,644.135 589.8846,644.485 C589.1446,644.835 588.5496,645.31 588.0996,645.91 C587.6496,646.51 587.3296,647.205 587.1396,647.995 C586.9496,648.785 586.8546,649.61 586.8546,650.47 L586.8546,650.47 L586.8546,652.6 L584.1246,652.6 L584.1246,655.48 L586.8546,655.48 L586.8546,667 L590.4546,667 Z M598.697071,667 L598.697071,655.48 L602.027071,655.48 L602.027071,652.6 L598.697071,652.6 L598.697071,650.26 C598.697071,649.9 598.727071,649.53 598.787071,649.15 C598.847071,648.77 598.962071,648.42 599.132071,648.1 C599.302071,647.78 599.547071,647.52 599.867071,647.32 C600.187071,647.12 600.607071,647.02 601.127071,647.02 C601.387071,647.02 601.632071,647.04 601.862071,647.08 C602.092071,647.12 602.307071,647.17 602.507071,647.23 L602.507071,647.23 L602.747071,644.17 C602.467071,644.09 602.192071,644.035 601.922071,644.005 C601.652071,643.975 601.317071,643.96 600.917071,643.96 C599.797071,643.96 598.867071,644.135 598.127071,644.485 C597.387071,644.835 596.792071,645.31 596.342071,645.91 C595.892071,646.51 595.572071,647.205 595.382071,647.995 C595.192071,648.785 595.097071,649.61 595.097071,650.47 L595.097071,650.47 L595.097071,652.6 L592.367071,652.6 L592.367071,655.48 L595.097071,655.48 L595.097071,667 L598.697071,667 Z M606.999543,667 L606.999543,659.29 C606.999543,659.03 607.049543,658.68 607.149543,658.24 C607.249543,657.8 607.439543,657.37 607.719543,656.95 C607.999543,656.53 608.389543,656.17 608.889543,655.87 C609.389543,655.57 610.049543,655.42 610.869543,655.42 C611.029543,655.42 611.194543,655.43 611.364543,655.45 C611.534543,655.47 611.739543,655.51 611.979543,655.57 L611.979543,655.57 L611.979543,652.27 C611.859543,652.23 611.719543,652.205 611.559543,652.195 C611.399543,652.185 611.249543,652.18 611.109543,652.18 C610.149543,652.18 609.309543,652.44 608.589543,652.96 C607.869543,653.48 607.309543,654.16 606.909543,655 L606.909543,655 L606.849543,655 L606.849543,652.6 L603.399543,652.6 L603.399543,667 L606.999543,667 Z M619.832014,667.42 C622.532014,667.42 624.592014,666.46 626.012014,664.54 L626.012014,664.54 L623.612014,662.62 C623.212014,663.2 622.702014,663.655 622.082014,663.985 C621.462014,664.315 620.702014,664.48 619.802014,664.48 C619.282014,664.48 618.782014,664.39 618.302014,664.21 C617.822014,664.03 617.392014,663.785 617.012014,663.475 C616.632014,663.165 616.327014,662.795 616.097014,662.365 C615.867014,661.935 615.732014,661.46 615.692014,660.94 L615.692014,660.94 L626.642014,660.94 C626.662014,660.78 626.672014,660.62 626.672014,660.46 L626.672014,660.46 L626.672014,659.98 C626.672014,658.68 626.497014,657.545 626.147014,656.575 C625.797014,655.605 625.312014,654.795 624.692014,654.145 C624.072014,653.495 623.337014,653.005 622.487014,652.675 C621.637014,652.345 620.712014,652.18 619.712014,652.18 C618.632014,652.18 617.627014,652.365 616.697014,652.735 C615.767014,653.105 614.962014,653.625 614.282014,654.295 C613.602014,654.965 613.067014,655.775 612.677014,656.725 C612.287014,657.675 612.092014,658.73 612.092014,659.89 C612.092014,661.07 612.287014,662.125 612.677014,663.055 C613.067014,663.985 613.607014,664.77 614.297014,665.41 C614.987014,666.05 615.802014,666.545 616.742014,666.895 C617.682014,667.245 618.712014,667.42 619.832014,667.42 Z M623.072014,658.36 L615.692014,658.36 C615.772014,657.34 616.187014,656.505 616.937014,655.855 C617.687014,655.205 618.602014,654.88 619.682014,654.88 C620.262014,654.88 620.767014,654.975 621.197014,655.165 C621.627014,655.355 621.982014,655.61 622.262014,655.93 C622.542014,656.25 622.747014,656.62 622.877014,657.04 C623.007014,657.46 623.072014,657.9 623.072014,658.36 L623.072014,658.36 Z M633.504486,667.42 C634.284486,667.42 635.039486,667.335 635.769486,667.165 C636.499486,666.995 637.139486,666.72 637.689486,666.34 C638.239486,665.96 638.679486,665.465 639.009486,664.855 C639.339486,664.245 639.504486,663.5 639.504486,662.62 C639.504486,661.92 639.364486,661.325 639.084486,660.835 C638.804486,660.345 638.439486,659.935 637.989486,659.605 C637.539486,659.275 637.039486,659.01 636.489486,658.81 C635.939486,658.61 635.394486,658.45 634.854486,658.33 C633.834486,658.09 633.059486,657.855 632.529486,657.625 C631.999486,657.395 631.734486,657 631.734486,656.44 C631.734486,655.88 631.974486,655.48 632.454486,655.24 C632.934486,655 633.464486,654.88 634.044486,654.88 C634.704486,654.88 635.314486,655.035 635.874486,655.345 C636.434486,655.655 636.874486,656.02 637.194486,656.44 L637.194486,656.44 L639.534486,654.37 C638.954486,653.63 638.169486,653.08 637.179486,652.72 C636.189486,652.36 635.174486,652.18 634.134486,652.18 C633.414486,652.18 632.714486,652.27 632.034486,652.45 C631.354486,652.63 630.744486,652.905 630.204486,653.275 C629.664486,653.645 629.229486,654.12 628.899486,654.7 C628.569486,655.28 628.404486,655.97 628.404486,656.77 C628.404486,657.45 628.524486,658.02 628.764486,658.48 C629.004486,658.94 629.324486,659.325 629.724486,659.635 C630.124486,659.945 630.579486,660.195 631.089486,660.385 C631.599486,660.575 632.124486,660.73 632.664486,660.85 C633.764486,661.11 634.589486,661.37 635.139486,661.63 C635.689486,661.89 635.964486,662.32 635.964486,662.92 C635.964486,663.24 635.894486,663.51 635.754486,663.73 C635.614486,663.95 635.429486,664.125 635.199486,664.255 C634.969486,664.385 634.719486,664.48 634.449486,664.54 C634.179486,664.6 633.914486,664.63 633.654486,664.63 C632.874486,664.63 632.164486,664.46 631.524486,664.12 C630.884486,663.78 630.364486,663.35 629.964486,662.83 L629.964486,662.83 L627.594486,665.05 C628.294486,665.81 629.174486,666.395 630.234486,666.805 C631.294486,667.215 632.384486,667.42 633.504486,667.42 Z" id="Combined-Shape"></path>
        </g>
    </g>
</svg>