<?xml version="1.0" encoding="UTF-8"?>
<svg width="213px" height="68px" viewBox="0 0 213 68" version="1.1" xmlns="http://www.w3.org/2000/svg" xmlns:xlink="http://www.w3.org/1999/xlink">
    <!-- Generator: Sketch 60 (88103) - https://sketch.com -->
    <title>Combined Shape</title>
    <desc>Created with Sketch.</desc>
    <g id="L'air-de-Valmy" stroke="none" stroke-width="1" fill="none" fill-rule="evenodd">
        <g id="Artboard" transform="translate(-104.000000, -1476.000000)" fill="#FFFDFD">
            <path d="M111,1476 L310,1476 C313.865993,1476 317,1479.13401 317,1483 L317,1537 C317,1540.86599 313.865993,1544 310,1544 L111,1544 C107.134007,1544 104,1540.86599 104,1537 L104,1483 C104,1479.13401 107.134007,1476 111,1476 Z M166.24,1523.72 C167.44,1523.72 168.613333,1523.53333 169.76,1523.16 C170.906667,1522.78667 171.92,1522.24 172.8,1521.52 C173.68,1520.8 174.386667,1519.9 174.92,1518.82 C175.453333,1517.74 175.72,1516.49333 175.72,1515.08 C175.72,1514.17333 175.573333,1513.33333 175.28,1512.56 C174.986667,1511.78667 174.586667,1511.1 174.08,1510.5 C173.573333,1509.9 172.966667,1509.4 172.26,1509 C171.553333,1508.6 170.786667,1508.32 169.96,1508.16 L169.96,1508.16 L169.96,1508.08 C170.68,1507.89333 171.346667,1507.6 171.96,1507.2 C172.573333,1506.8 173.1,1506.32 173.54,1505.76 C173.98,1505.2 174.326667,1504.57333 174.58,1503.88 C174.833333,1503.18667 174.96,1502.44 174.96,1501.64 C174.96,1500.38667 174.726667,1499.28 174.26,1498.32 C173.793333,1497.36 173.16,1496.56 172.36,1495.92 C171.56,1495.28 170.633333,1494.79333 169.58,1494.46 C168.526667,1494.12667 167.413333,1493.96 166.24,1493.96 C164.24,1493.96 162.473333,1494.44667 160.94,1495.42 C159.406667,1496.39333 158.293333,1497.73333 157.6,1499.44 L157.6,1499.44 L161.12,1500.68 C161.546667,1499.58667 162.18,1498.73333 163.02,1498.12 C163.86,1497.50667 164.88,1497.2 166.08,1497.2 C166.746667,1497.2 167.38,1497.31333 167.98,1497.54 C168.58,1497.76667 169.113333,1498.08 169.58,1498.48 C170.046667,1498.88 170.413333,1499.36667 170.68,1499.94 C170.946667,1500.51333 171.08,1501.16 171.08,1501.88 C171.08,1502.78667 170.9,1503.54667 170.54,1504.16 C170.18,1504.77333 169.706667,1505.26 169.12,1505.62 C168.533333,1505.98 167.86,1506.23333 167.1,1506.38 C166.34,1506.52667 165.56,1506.6 164.76,1506.6 L164.76,1506.6 L163.52,1506.6 L163.52,1509.8 L164.72,1509.8 C165.546667,1509.8 166.386667,1509.88667 167.24,1510.06 C168.093333,1510.23333 168.86,1510.52667 169.54,1510.94 C170.22,1511.35333 170.773333,1511.89333 171.2,1512.56 C171.626667,1513.22667 171.84,1514.05333 171.84,1515.04 C171.84,1515.94667 171.68,1516.73333 171.36,1517.4 C171.04,1518.06667 170.613333,1518.62667 170.08,1519.08 C169.546667,1519.53333 168.94,1519.87333 168.26,1520.1 C167.58,1520.32667 166.88,1520.44 166.16,1520.44 C164.666667,1520.44 163.406667,1520.05333 162.38,1519.28 C161.353333,1518.50667 160.626667,1517.50667 160.2,1516.28 L160.2,1516.28 L156.6,1517.48 C157.373333,1519.61333 158.613333,1521.18667 160.32,1522.2 C162.026667,1523.21333 164,1523.72 166.24,1523.72 Z M182.229962,1528.32 L185.549962,1518.32 L181.789962,1518.32 L179.029962,1528.32 L182.229962,1528.32 Z M197.859924,1523.72 C199.273257,1523.72 200.579924,1523.48667 201.779924,1523.02 C202.979924,1522.55333 204.019924,1521.9 204.899924,1521.06 C205.779924,1520.22 206.473257,1519.2 206.979924,1518 C207.48659,1516.8 207.739924,1515.45333 207.739924,1513.96 C207.739924,1512.6 207.499924,1511.36667 207.019924,1510.26 C206.539924,1509.15333 205.879924,1508.21333 205.039924,1507.44 C204.199924,1506.66667 203.199924,1506.07333 202.039924,1505.66 C200.879924,1505.24667 199.619924,1505.04 198.259924,1505.04 C197.673257,1505.04 197.053257,1505.08 196.399924,1505.16 C195.74659,1505.24 195.153257,1505.37333 194.619924,1505.56 L194.619924,1505.56 L194.859924,1498.12 L206.539924,1498.12 L206.539924,1494.68 L191.259924,1494.68 L190.859924,1509.72 C191.739924,1509.26667 192.739924,1508.89333 193.859924,1508.6 C194.979924,1508.30667 196.073257,1508.16 197.139924,1508.16 C198.019924,1508.16 198.859924,1508.28 199.659924,1508.52 C200.459924,1508.76 201.16659,1509.13333 201.779924,1509.64 C202.393257,1510.14667 202.879924,1510.79333 203.239924,1511.58 C203.599924,1512.36667 203.779924,1513.29333 203.779924,1514.36 C203.779924,1515.26667 203.62659,1516.09333 203.319924,1516.84 C203.013257,1517.58667 202.593257,1518.22667 202.059924,1518.76 C201.52659,1519.29333 200.899924,1519.70667 200.179924,1520 C199.459924,1520.29333 198.68659,1520.44 197.859924,1520.44 C196.579924,1520.44 195.453257,1520.09333 194.479924,1519.4 C193.50659,1518.70667 192.793257,1517.78667 192.339924,1516.64 L192.339924,1516.64 L188.819924,1518.04 C189.593257,1519.77333 190.739924,1521.15333 192.259924,1522.18 C193.779924,1523.20667 195.64659,1523.72 197.859924,1523.72 Z M221.529886,1523.72 C223.209886,1523.72 224.656552,1523.33333 225.869886,1522.56 C227.083219,1521.78667 228.083219,1520.72667 228.869886,1519.38 C229.656552,1518.03333 230.236552,1516.46 230.609886,1514.66 C230.983219,1512.86 231.169886,1510.92 231.169886,1508.84 C231.169886,1506.78667 230.983219,1504.85333 230.609886,1503.04 C230.236552,1501.22667 229.656552,1499.64667 228.869886,1498.3 C228.083219,1496.95333 227.083219,1495.89333 225.869886,1495.12 C224.656552,1494.34667 223.209886,1493.96 221.529886,1493.96 C219.849886,1493.96 218.396552,1494.34667 217.169886,1495.12 C215.943219,1495.89333 214.936552,1496.95333 214.149886,1498.3 C213.363219,1499.64667 212.783219,1501.22667 212.409886,1503.04 C212.036552,1504.85333 211.849886,1506.78667 211.849886,1508.84 C211.849886,1510.92 212.036552,1512.86 212.409886,1514.66 C212.783219,1516.46 213.363219,1518.03333 214.149886,1519.38 C214.936552,1520.72667 215.943219,1521.78667 217.169886,1522.56 C218.396552,1523.33333 219.849886,1523.72 221.529886,1523.72 Z M221.529886,1520.44 C220.356552,1520.44 219.396552,1520.06 218.649886,1519.3 C217.903219,1518.54 217.323219,1517.58667 216.909886,1516.44 C216.496552,1515.29333 216.209886,1514.04 216.049886,1512.68 C215.889886,1511.32 215.809886,1510.04 215.809886,1508.84 C215.809886,1507.64 215.889886,1506.36 216.049886,1505 C216.209886,1503.64 216.496552,1502.38 216.909886,1501.22 C217.323219,1500.06 217.903219,1499.1 218.649886,1498.34 C219.396552,1497.58 220.356552,1497.2 221.529886,1497.2 C222.676552,1497.2 223.616552,1497.58 224.349886,1498.34 C225.083219,1499.1 225.663219,1500.06 226.089886,1501.22 C226.516552,1502.38 226.809886,1503.64 226.969886,1505 C227.129886,1506.36 227.209886,1507.64 227.209886,1508.84 C227.209886,1510.04 227.129886,1511.32 226.969886,1512.68 C226.809886,1514.04 226.516552,1515.29333 226.089886,1516.44 C225.663219,1517.58667 225.083219,1518.54 224.349886,1519.3 C223.616552,1520.06 222.676552,1520.44 221.529886,1520.44 Z M247.959848,1523.72 C249.399848,1523.72 250.713181,1523.56 251.899848,1523.24 C253.086514,1522.92 254.106514,1522.48 254.959848,1521.92 L254.959848,1521.92 L253.559848,1518.88 C252.786514,1519.38667 251.959848,1519.75333 251.079848,1519.98 C250.199848,1520.20667 249.239848,1520.32 248.199848,1520.32 C247.133181,1520.32 246.139848,1520.16 245.219848,1519.84 C244.299848,1519.52 243.473181,1519.07333 242.739848,1518.5 C242.006514,1517.92667 241.393181,1517.24667 240.899848,1516.46 C240.406514,1515.67333 240.066514,1514.8 239.879848,1513.84 L239.879848,1513.84 L248.759848,1513.84 L249.679848,1511 L239.439848,1511 C239.386514,1510.70667 239.353181,1510.37333 239.339848,1510 C239.326514,1509.62667 239.319848,1509.29333 239.319848,1509 C239.319848,1508.6 239.333181,1508.20667 239.359848,1507.82 C239.386514,1507.43333 239.426514,1507.06667 239.479848,1506.72 L239.479848,1506.72 L250.879848,1506.72 L251.799848,1503.88 L240.039848,1503.88 C240.306514,1502.86667 240.699848,1501.95333 241.219848,1501.14 C241.739848,1500.32667 242.359848,1499.64 243.079848,1499.08 C243.799848,1498.52 244.593181,1498.08667 245.459848,1497.78 C246.326514,1497.47333 247.253181,1497.32 248.239848,1497.32 C249.253181,1497.32 250.193181,1497.42 251.059848,1497.62 C251.926514,1497.82 252.693181,1498.10667 253.359848,1498.48 L253.359848,1498.48 L254.599848,1495.28 C253.853181,1494.88 252.939848,1494.56 251.859848,1494.32 C250.779848,1494.08 249.639848,1493.96 248.439848,1493.96 C246.919848,1493.96 245.493181,1494.18667 244.159848,1494.64 C242.826514,1495.09333 241.633181,1495.74667 240.579848,1496.6 C239.526514,1497.45333 238.619848,1498.49333 237.859848,1499.72 C237.099848,1500.94667 236.533181,1502.33333 236.159848,1503.88 L236.159848,1503.88 L233.919848,1503.88 L232.919848,1506.72 L235.719848,1506.72 C235.666514,1507.01333 235.633181,1507.37333 235.619848,1507.8 C235.606514,1508.22667 235.599848,1508.62667 235.599848,1509 C235.599848,1509.32 235.606514,1509.66 235.619848,1510.02 C235.633181,1510.38 235.653181,1510.70667 235.679848,1511 L235.679848,1511 L233.799848,1511 L232.839848,1513.84 L236.039848,1513.84 C236.306514,1515.14667 236.753181,1516.39333 237.379848,1517.58 C238.006514,1518.76667 238.819848,1519.81333 239.819848,1520.72 C240.819848,1521.62667 241.993181,1522.35333 243.339848,1522.9 C244.686514,1523.44667 246.226514,1523.72 247.959848,1523.72 Z" id="Combined-Shape"></path>
        </g>
    </g>
</svg>